<svg version="1.2" xmlns="http://www.w3.org/2000/svg" viewBox="0 0 508 508" width="508" height="508">
	<title>teamwork-svgrepo-com-svg</title>
	<style>
		.s0 { fill: #f9b54c } 
		.s1 { fill: #ff7058 } 
		.s2 { fill: #4cdbc4 } 
		.s3 { fill: #ffd05b } 
		.s4 { fill: #e6e9ee } 
	</style>
	<path id="Layer" fill-rule="evenodd" class="s0" d="m466.4 370.4l-38.4 50c0 0-44.8-39.2-61.2-38.4 0 0-43.2 5.2-62.4-13.2-19.2-18.4-36.4-16-36.4-16-4-0.8-6.8-3.2-8-5.2-3.2-4.8-2.4-12.8 2.8-14.8 10.4-4 24-3.2 37.6 0.8l-33.2-28-28 19.2c-17.2 11.6-35.6 21.2-54.8 28.4l-16.8 6.4c0 0-38.8 14.4-62 29.6l-38.4-50c0 0 49.6-33.2 53.2-49.2 0 0 6-43.2 29.2-56.8 22.8-13.6 24.8-30.8 24.8-30.8 1.6-3.6 4.4-5.6 6.8-6.4 5.6-2 13.2 0.8 13.6 6.4 1.2 11.2-3.6 24-10.8 36l62.8-43.6c5.6-3.6 12.8-2.4 16.8 2.8 4 5.6 2.8 13.6-2.8 17.6l-54.4 38.8c-0.8 0.4-0.8 1.2-0.4 1.6 0.4 0.8 1.2 0.8 1.6 0.4l60-42.4c4.8-3.6 12-3.2 16 1.2 0.4 0.4 0.8 0.4 0.8 0.8 3.2 4.4 2.8 10-0.4 14 4-2.8 10-2 14 1.2l45.6 37.6c0.8 0.4 1.6 0.4 2 0 0.4-0.4 0.4-1.2 0-1.6l-28.4-23.6c-4.4-4-5.2-10.8-1.6-15.6 4-5.2 11.6-6 16.4-1.6l36.8 32c16 13.2 30 28.4 42 45.2l10.4 14.4c0 0 24.4 33.6 45.2 52.8zm-217.2-80l-2-1.6-12.8 9.2c-0.4 0.4-0.8 1.2-0.4 1.6 0.4 0.8 1.2 0.8 1.6 0.4zm3.2-34.4c-0.4-0.4-0.8-1.2-1.2-2l-26.8 18.8c-0.8 0.4-0.8 1.2-0.4 1.6 0.4 0.8 1.2 0.8 1.6 0.4zm58.8 50l-29.2-24.4c1.2 1.6 1.6 3.2 2 5.2l25.6 20.8c0.4 0.4 1.2 0.4 1.6 0 0.4-0.8 0.4-1.6 0-1.6zm13.6-22.8l-36.4-30.4c0 1.2 0 2.4-0.4 3.2l35.2 29.2c0.4 0.4 1.2 0.4 1.6 0 0.4-0.4 0.4-1.2 0-2z"/>
	<path id="Layer" class="s1" d="m18 348c12.8 32.4 32.4 61.6 56.4 85.6l76.8-48.8-52-88.4z"/>
	<path id="Layer" class="s2" d="m450 326.4l-71.6 73.6 46.4 42c25.6-23.2 46.4-51.6 60.8-83.6z"/>
	<path id="Layer" class="s3" d="m220.8 255.6c6-0.4 10.8-5.6 10.8-11.6l-0.8-36.8q0-1.2 1.2-1.2 1.2 0 1.2 1.2l1.6 58.8c0 6 4.4 11.2 10 12 7.2 0.8 13.6-4.8 13.2-12l-1.2-53.6q0-1.2 1.2-1.2 1.2 0 1.2 1.2l1.6 70c0 6.8 5.6 12 12.4 12q0.6 0 1.2 0c6-1.2 10-6.8 10-12.8l-2-73.6q0-1.2 1.2-1.2 1.2 0 1.2 1.2l2 66.8c0 6.8 6 12.4 13.2 12 6.4-0.4 11.6-6 11.6-12.4l-1.2-76c6 12.8 14 23.6 24 28.8 5.2 2.8 11.2-2 12.8-7.6 0.8-2.4 0.4-6-1.6-9.2 0 0-13.2-11.6-12-38 1.2-26.4-31.2-55.6-31.2-55.6-11.2-12-11.6-71.2-11.6-71.2l-62.8 4c0 27.6-9.6 68-9.6 68l-4 17.6c-4.4 20-6.8 40.8-6.8 61.2l0.4 48.4c0.8 6 6.4 11.2 12.8 10.8z"/>
	<path id="Layer" class="s4" d="m311.2 6.4c-18.4-4-37.6-6.4-57.2-6.4-15.6 0-30.8 1.6-45.2 4l-1.6 85.6 102.4 5.6z"/>
</svg>