<?xml version="1.0" encoding="iso-8859-1"?>
<!-- Uploaded to: SVG Repo, www.svgrepo.com, Generator: SVG Repo Mixer Tools -->
<svg height="800px" width="800px" version="1.1" id="Layer_1" xmlns="http://www.w3.org/2000/svg" xmlns:xlink="http://www.w3.org/1999/xlink" 
	 viewBox="0 0 512 512" xml:space="preserve">
<path style="fill:#F7CEBC;" d="M256,67.678c-52.004,0-94.161,42.157-94.161,94.161v82.391c0,52.004,42.157,94.161,94.161,94.161
	s94.161-42.157,94.161-94.161v-82.391C350.161,109.835,308.004,67.678,256,67.678z"/>
<path style="fill:#F7BA9E;" d="M256,67.678c-6.037,0-11.934,0.591-17.655,1.677c43.561,8.267,76.506,46.518,76.506,92.484v82.391
	c0,45.966-32.945,84.216-76.506,92.484c5.721,1.086,11.618,1.677,17.655,1.677c52.004,0,94.161-42.157,94.161-94.161v-82.391
	C350.161,109.835,308.004,67.678,256,67.678z"/>
<circle style="fill:#A58868;" cx="256" cy="50.023" r="41.195"/>
<path style="fill:#797781;" d="M350.161,338.391h-11.77v11.77H173.609v-11.77h-11.77c-58.505,0-105.931,47.427-105.931,105.931
	v58.851h400.184v-58.851C456.092,385.817,408.665,338.391,350.161,338.391z"/>
<path style="fill:#58575D;" d="M350.161,338.391h-47.08c58.505,0,105.931,47.427,105.931,105.931v58.851h47.08v-58.851
	C456.092,385.817,408.665,338.391,350.161,338.391z"/>
<polygon style="fill:#EDEDED;" points="303.08,467.862 208.92,467.862 161.839,338.391 350.161,338.391 "/>
<path style="fill:#BFA993;" d="M256,67.678c-52.004,0-94.161,42.157-94.161,94.161v35.31c65.057,0,117.701-36.851,117.701-82.391
	c0,39.034,31.586,70.621,70.621,70.621v-23.54C350.161,109.835,308.004,67.678,256,67.678z"/>
<path style="fill:#B29A7E;" d="M256,67.678c-6.037,0-11.934,0.591-17.655,1.677c43.561,8.267,76.506,46.518,76.506,92.484v14.084
	c10.387,6.004,22.439,9.456,35.31,9.456v-23.54C350.161,109.835,308.004,67.678,256,67.678z"/>
<path style="fill:#E07188;" d="M282.379,399.664c-1.65-8.252-8.897-14.192-17.313-14.192h-2.004c9.101,0,16.478-7.378,16.478-16.478
	v-14.124c0-9.101-7.378-16.478-16.478-16.478h-14.124c-9.101,0-16.478,7.378-16.478,16.478v14.124
	c0,9.101,7.378,16.478,16.478,16.478h-2.004c-8.416,0-15.662,5.94-17.313,14.192l-8.931,44.658L256,503.172l35.31-58.851
	L282.379,399.664z"/>
<path style="fill:#DC4161;" d="M282.379,399.664c-1.65-8.252-8.897-14.192-17.313-14.192h-2.004c9.101,0,16.478-7.378,16.478-16.478
	v-14.124c0-9.101-7.378-16.478-16.478-16.478h-14.124c-1.637,0-3.216,0.247-4.708,0.691c6.804,2.027,11.77,8.324,11.77,15.787
	v14.124c0,7.463-4.966,13.76-11.77,15.787c1.492,0.445,3.071,0.691,4.708,0.691h-2.004c-0.918,0-1.818,0.084-2.704,0.22
	c7.223,1.117,13.138,6.621,14.609,13.972l8.931,44.658l-23.54,39.233L256,503.172l35.31-58.851L282.379,399.664z"/>
<g>
	<path style="fill:#88888F;" d="M161.839,338.391c-18.609,0-36.093,4.805-51.289,13.231l39.519,69.16l35.31-11.77l-11.77,35.31
		l35.31,58.851H256l-82.391-164.782H161.839z"/>
	<path style="fill:#88888F;" d="M326.621,409.012l35.31,11.77l39.521-69.16c-15.198-8.426-32.682-13.231-51.291-13.231h-11.77
		L256,503.172h47.08l35.31-58.851L326.621,409.012z"/>
</g>
<g>
	<path style="fill:#797781;" d="M356.534,338.587c0.341,0.02,0.683,0.041,1.023,0.065
		C357.217,338.629,356.876,338.607,356.534,338.587z"/>
	<path style="fill:#797781;" d="M383.286,343.68c0.08,0.026,0.161,0.052,0.241,0.079
		C383.447,343.732,383.366,343.707,383.286,343.68z"/>
	<path style="fill:#797781;" d="M363.824,339.265c0.119,0.015,0.238,0.034,0.357,0.049
		C364.061,339.299,363.943,339.282,363.824,339.265z"/>
	<path style="fill:#797781;" d="M380.061,342.677c0.162,0.048,0.325,0.096,0.487,0.145
		C380.385,342.773,380.223,342.725,380.061,342.677z"/>
	<path style="fill:#797781;" d="M373.826,341.047c0.006,0.001,0.013,0.002,0.019,0.005
		C373.839,341.05,373.832,341.048,373.826,341.047z"/>
	<path style="fill:#797781;" d="M359.942,338.844c0.248,0.022,0.498,0.041,0.745,0.066
		C360.439,338.886,360.19,338.867,359.942,338.844z"/>
	<path style="fill:#797781;" d="M377.026,341.831c0.077,0.02,0.153,0.042,0.231,0.062
		C377.18,341.874,377.104,341.852,377.026,341.831z"/>
	<path style="fill:#797781;" d="M370.115,340.276c0.242,0.046,0.485,0.092,0.727,0.139
		C370.601,340.367,370.357,340.322,370.115,340.276z"/>
	<path style="fill:#797781;" d="M392.575,347.231c0.059,0.026,0.117,0.051,0.175,0.077
		C392.691,347.283,392.633,347.257,392.575,347.231z"/>
	<path style="fill:#797781;" d="M366.925,339.716c0.266,0.042,0.532,0.088,0.797,0.132
		C367.457,339.804,367.192,339.758,366.925,339.716z"/>
	<path style="fill:#797781;" d="M401.452,351.622l-0.004-0.001L401.452,351.622z"/>
	<path style="fill:#797781;" d="M389.627,345.993c0.015,0.006,0.031,0.013,0.047,0.019C389.658,346.006,389.643,346,389.627,345.993
		z"/>
	<path style="fill:#797781;" d="M353.327,338.441c0.32,0.009,0.639,0.025,0.959,0.036
		C353.966,338.466,353.647,338.451,353.327,338.441z"/>
	<path style="fill:#797781;" d="M360.687,338.911c1.05,0.104,2.096,0.221,3.137,0.355
		C362.783,339.131,361.737,339.015,360.687,338.911z"/>
	<path style="fill:#797781;" d="M354.286,338.478c0.751,0.028,1.501,0.065,2.248,0.108
		C355.787,338.543,355.037,338.507,354.286,338.478z"/>
	<path style="fill:#797781;" d="M350.161,338.391c1.059,0,2.114,0.02,3.166,0.051C352.275,338.411,351.22,338.391,350.161,338.391z"
		/>
	<path style="fill:#797781;" d="M357.557,338.652c0.797,0.055,1.591,0.12,2.383,0.193
		C359.15,338.772,358.355,338.707,357.557,338.652z"/>
	<path style="fill:#797781;" d="M377.257,341.894c0.939,0.248,1.874,0.51,2.804,0.783
		C379.131,342.404,378.196,342.142,377.257,341.894z"/>
	<path style="fill:#797781;" d="M383.527,343.759c2.062,0.684,4.096,1.429,6.1,2.234
		C387.623,345.188,385.589,344.443,383.527,343.759z"/>
	<path style="fill:#797781;" d="M389.674,346.012c0.975,0.392,1.941,0.799,2.9,1.219
		C391.615,346.812,390.648,346.405,389.674,346.012z"/>
	<path style="fill:#797781;" d="M392.75,347.309c2.973,1.308,5.876,2.746,8.698,4.311
		C398.626,350.055,395.723,348.616,392.75,347.309z"/>
	<path style="fill:#797781;" d="M364.18,339.316c0.919,0.121,1.834,0.255,2.746,0.4C366.014,339.571,365.098,339.437,364.18,339.316
		z"/>
	<path style="fill:#797781;" d="M380.547,342.821c0.918,0.274,1.831,0.56,2.738,0.859
		C382.378,343.383,381.465,343.096,380.547,342.821z"/>
	<path style="fill:#797781;" d="M370.842,340.415c0.999,0.198,1.994,0.406,2.984,0.632
		C372.837,340.821,371.841,340.613,370.842,340.415z"/>
	<path style="fill:#797781;" d="M367.723,339.848c0.8,0.134,1.598,0.275,2.393,0.427
		C369.321,340.125,368.523,339.982,367.723,339.848z"/>
	<path style="fill:#797781;" d="M373.845,341.051c1.066,0.244,2.127,0.505,3.181,0.78
		C375.972,341.556,374.912,341.294,373.845,341.051z"/>
	<path style="fill:#797781;" d="M401.448,351.62c-2.822-1.565-5.725-3.004-8.698-4.311c-0.059-0.026-0.117-0.052-0.175-0.077
		c-0.959-0.42-1.927-0.827-2.9-1.219c-0.015-0.006-0.031-0.013-0.047-0.019c-2.003-0.805-4.038-1.55-6.1-2.234
		c-0.08-0.027-0.161-0.052-0.241-0.079c-0.907-0.299-1.821-0.584-2.738-0.859c-0.162-0.048-0.324-0.097-0.487-0.145
		c-0.929-0.273-1.863-0.534-2.804-0.783c-0.077-0.02-0.153-0.042-0.231-0.062c-1.055-0.275-2.115-0.537-3.181-0.78
		c-0.006-0.001-0.013-0.002-0.019-0.005c-0.989-0.226-1.984-0.434-2.984-0.632c-0.242-0.048-0.485-0.093-0.727-0.139
		c-0.794-0.152-1.592-0.294-2.393-0.427c-0.266-0.045-0.531-0.089-0.797-0.132c-0.911-0.145-1.827-0.279-2.746-0.4
		c-0.119-0.015-0.237-0.034-0.357-0.049c-1.04-0.134-2.087-0.252-3.137-0.355c-0.247-0.025-0.497-0.044-0.745-0.066
		c-0.792-0.073-1.587-0.138-2.383-0.193c-0.34-0.024-0.681-0.045-1.023-0.065c-0.747-0.045-1.497-0.08-2.248-0.108
		c-0.32-0.012-0.639-0.027-0.959-0.036c-1.052-0.031-2.107-0.051-3.166-0.051h-11.77l-2.581,5.161
		c20.041,6.505,37.462,18.818,50.276,34.957l15.365-26.888L401.448,351.62z"/>
</g>
<path style="fill:#2E2D31;" d="M456.092,482.575c-4.876,0-8.828,3.952-8.828,8.828v2.943H318.672l27.289-45.481
	c1.325-2.209,1.62-4.888,0.805-7.333l-6.188-18.561l18.561,6.188c4.173,1.39,8.722-0.498,10.687-4.427l31.457-62.914
	c27.574,17.148,45.98,47.711,45.98,82.505c0,4.875,3.951,8.828,8.828,8.828s8.828-3.952,8.828-8.828
	c0-63.278-51.48-114.759-114.759-114.759h-36.558c27.366-18.532,45.386-49.868,45.386-85.333v-82.391
	c0-56.788-46.2-102.989-102.988-102.989c-10.272,0-20.194,1.518-29.562,4.331c-1.834-4.114-2.806-8.575-2.806-13.159
	c0-17.848,14.521-32.368,32.368-32.368s32.368,14.52,32.368,32.368c0,4.875,3.951,8.828,8.828,8.828s8.828-3.952,8.828-8.828
	C306.023,22.44,283.583,0,256,0s-50.023,22.44-50.023,50.023c0,6.837,1.377,13.51,4.027,19.689
	c-33.76,16.924-56.992,51.86-56.992,92.127v82.391c0,35.466,18.02,66.801,45.386,85.333h-36.558
	c-63.278,0-114.759,51.48-114.759,114.759v58.851c0,4.875,3.951,8.828,8.828,8.828h400.184c4.876,0,8.828-3.952,8.828-8.828v-11.77
	C464.92,486.527,460.968,482.575,456.092,482.575z M385.501,353.905l-28.04,56.081l-28.047-9.349
	c-3.17-1.056-6.67-0.233-9.035,2.133c-2.365,2.365-3.19,5.862-2.132,9.034l10.486,31.458l-30.652,51.083h-27.799l73.563-147.126
	h6.315C362.628,347.218,374.539,349.605,385.501,353.905z M263.062,347.218c4.218,0,7.651,3.432,7.651,7.651v14.124
	c0,4.218-3.432,7.651-7.651,7.651h-14.124c-4.218,0-7.651-3.432-7.651-7.651v-14.124c0-4.218,3.432-7.651,7.651-7.651H263.062z
	 M295.299,404.834l-7.385-22.155c-0.405-1.216-1.053-2.279-1.867-3.166c1.475-3.209,2.32-6.764,2.32-10.52v-14.124
	c0-2.666-0.42-5.235-1.189-7.651h36.929L295.299,404.834z M225.952,379.513c-0.813,0.887-1.462,1.951-1.867,3.166l-7.385,22.155
	l-28.809-57.616h36.929c-0.767,2.415-1.189,4.985-1.189,7.651v14.124C223.632,372.749,224.477,376.305,225.952,379.513z
	 M229.064,423.573l10.38-31.139c2.935,1.194,6.136,1.864,9.494,1.864h14.124c3.358,0,6.559-0.672,9.494-1.864l10.38,31.139
	c0.355,1.065,0.91,2.002,1.585,2.819L256,483.433l-28.521-57.043C228.154,425.574,228.709,424.639,229.064,423.573z M256,76.506
	c47.053,0,85.333,38.28,85.333,85.333v14.072c-29.904-4.297-52.966-30.077-52.966-61.153c0-4.875-3.951-8.828-8.828-8.828
	s-8.828,3.952-8.828,8.828c0,38.554-44.126,70.275-100.046,73.321v-26.24C170.667,114.786,208.947,76.506,256,76.506z
	 M170.667,244.23v-38.494c29.948-1.469,57.903-10.367,79.481-25.472c12.553-8.786,22.235-19.133,28.712-30.474
	c11.73,23.78,35.014,40.879,62.473,43.927v50.513c0,47.053-38.28,85.333-85.333,85.333S170.667,291.283,170.667,244.23z
	 M168.154,347.218l73.563,147.126h-27.799l-30.651-51.083l10.486-31.458c1.057-3.172,0.232-6.669-2.133-9.034
	c-2.365-2.365-5.86-3.191-9.035-2.133l-28.047,9.349l-28.04-56.081c10.96-4.3,22.873-6.687,35.34-6.687H168.154z M64.736,444.322
	c0-34.794,18.405-65.357,45.981-82.506l31.457,62.914c1.964,3.929,6.518,5.814,10.687,4.427l18.561-6.188l-6.188,18.561
	c-0.814,2.445-0.52,5.124,0.805,7.333l27.288,45.482H64.736V444.322z"/>
</svg>